<?xml version="1.0" encoding="utf-8"?><svg version="1.1"  xmlns="http://www.w3.org/2000/svg" xmlns:xlink="http://www.w3.org/1999/xlink" x="0px" y="0px" viewBox="0 0 282.1 337.6" style="enable-background:new 0 0 282.1 337.6;" xml:space="preserve"><style type="text/css">.st2{fill:#F3B71D;}.st5{fill:#1B1C1F;}.st7{fill:#414F49;}.st9{fill:#F9F9F7;}.st10{fill:#FFFFFF;}</style><g><defs><rect id="rect1" width="282.1" height="337.6"/></defs><clipPath id="clip1"><use xlink:href="#rect1"  style="overflow:visible;"/></clipPath><g style="clip-path:url(#clip1);"><g><defs><path id="path1" d="M16,0h250.1c4.2,0,8.3,1.7,11.3,4.7c3,3,4.7,7.1,4.7,11.3v305.6c0,4.2-1.7,8.3-4.7,11.3c-3,3-7.1,4.7-11.3,4.7H16c-4.2,0-8.3-1.7-11.3-4.7c-3-3-4.7-7.1-4.7-11.3V16c0-4.2,1.7-8.3,4.7-11.3C7.7,1.7,11.8,0,16,0"/></defs><clipPath id="clip2"><use xlink:href="#path1"  style="overflow:visible;"/></clipPath><g style="clip-path:url(#clip2);"><path class="st2" d="M0,0h282.1v337.6H0V0z"/></g></g></g></g><g><defs><rect id="rect2" x="5.1" y="3.5" width="274" height="330.5"/></defs><clipPath id="clip3"><use xlink:href="#rect2"  style="overflow:visible;"/></clipPath><g style="clip-path:url(#clip3);"><g><defs><path id="path2" d="M21.1,3.5h242c4.2,0,8.3,1.7,11.3,4.7c3,3,4.7,7.1,4.7,11.3v298.5c0,4.2-1.7,8.3-4.7,11.3c-3,3-7.1,4.7-11.3,4.7h-242c-4.2,0-8.3-1.7-11.3-4.7c-3-3-4.7-7.1-4.7-11.3V19.5c0-4.2,1.7-8.3,4.7-11.3C12.8,5.2,16.9,3.5,21.1,3.5"/></defs><clipPath id="clip4"><use xlink:href="#path2"  style="overflow:visible;"/></clipPath><g style="clip-path:url(#clip4);"><path class="st5" d="M5.1,3.5h274V334H5.1V3.5z"/></g></g></g></g><g><defs><rect id="rect3" x="17.1" y="16.6" width="252" height="227.4"/></defs><clipPath id="clip5"><use xlink:href="#rect3"  style="overflow:visible;"/></clipPath><g style="clip-path:url(#clip5);"><path class="st7" d="M120.5,244L17.1,140.6V65L120.5,244z M69.3,16.7H17.1v28.9l111.8,193.6L69.3,16.7z M269.1,140.6V65L165.7,244L269.1,140.6z M147.9,16.7v220l58.9-220H147.9z M269.1,45.6V16.7h-52.2l-59.6,222.5L269.1,45.6z M138.2,16.7H79.3l58.9,220V16.7z"/></g></g><g><defs><rect id="rect4" x="19.2" y="18.2" width="253.7" height="253.7"/></defs><clipPath id="clip6"><use xlink:href="#rect4"  style="overflow:visible;"/></clipPath><g style="clip-path:url(#clip6);"><path class="st9" d="M146.1,18.2L19.2,145.1l126.9,126.9L273,145.1L146.1,18.2z M74.7,189.3c20.9-20.4,38.9-43.8,53.8-69.7c-11.2,31.7-25.2,59.2-41.7,81.8L74.7,189.3z M92.5,207c18.3-24.7,33.6-55,45.5-90.2c-5.5,48.5-13.1,87.4-22.3,113.3L92.5,207z M146.1,260.6l-24.4-24.4c9.9-26.4,18.5-68.8,24.4-120.5c5.9,51.7,14.5,94.2,24.4,120.5L146.1,260.6z M176.5,230.1c-9.2-25.9-16.8-64.8-22.3-113.3c11.9,35.2,27.1,65.5,45.5,90.2L176.5,230.1z M205.4,201.3c-16.5-22.6-30.5-50-41.7-81.8c14.8,25.9,32.9,49.3,53.8,69.7L205.4,201.3z M161.6,98.7l-0.7-1.4c-0.6-1.2-1.2-2.4-1.8-3.6l-0.4-0.9l-1.3,0.2c-1.1,0.1-2.1,0.3-3.2,0.4c-0.3,0-0.7,0-1.1,0.1l-3.2,0.2c-0.4,0-0.7,0-1.1,0.1l-0.9,0.1c-0.3,0-0.7,0-1,0.1h-1.6c-0.3,0-0.7,0-1-0.1l-0.9-0.1c-0.4,0-0.7,0-1.1-0.1l-3.2-0.2c-0.4,0-0.7,0-1.1-0.1c-1.1-0.1-2.2-0.2-3.2-0.4l-1.3-0.2l-0.4,0.9c-0.5,1.1-1.1,2.3-1.7,3.4l-0.8,1.6c-16,32.2-36.7,60.7-61.5,84.9l-38.5-38.5L146.1,29.5l115.5,115.5l-38.5,38.5C198.3,159.4,177.6,130.9,161.6,98.7z"/></g></g><g><g transform="translate(298.92, 598.41)"><g><path class="st10" d="M-257.7-315.9h-5.6v-3.4h15.6v3.4h-5.4v29.6h-4.6V-315.9z"/></g></g></g><g><g transform="translate(328.04, 598.41)"><g><path class="st10" d="M-273.8-317.9h4.4v4.6h-4.4V-317.9z M-273.8-309.9h4.4v23.5h-4.4V-309.9z"/></g></g></g><g><g transform="translate(344.19, 598.41)"><g><path class="st10" d="M-274.4-286c-1.8,0-3.2-0.3-4.2-1c-1-0.7-1.7-1.7-2.1-3.1c-0.4-1.4-0.6-3.1-0.6-5.3v-5.4c0-3.3,0.5-5.6,1.5-7.1c1-1.5,2.8-2.3,5.4-2.3c1.9,0,3.3,0.4,4.3,1.2c1,0.8,1.6,1.9,1.9,3.3c0.3,1.4,0.5,3.3,0.5,5.8v1.9h-9.3v4.7c0,1.4,0.2,2.5,0.6,3.1c0.4,0.6,1.1,1,2,1c0.9,0,1.5-0.3,1.9-1c0.3-0.6,0.5-1.6,0.5-2.9v-1.4h4.2v0.9c0,2.5-0.5,4.4-1.6,5.7C-270.4-286.7-272-286-274.4-286z M-271.9-300.4v-2.1c0-1.6-0.2-2.8-0.5-3.4c-0.3-0.7-1-1-2-1c-0.7,0-1.2,0.2-1.6,0.5c-0.4,0.3-0.6,0.9-0.8,1.6c-0.1,0.7-0.2,1.8-0.2,3.2v1.3H-271.9z"/></g></g></g><g><g transform="translate(373.87, 598.41)"><g><path class="st10" d="M-293.3-309.9h4.4v3.3c0.8-1.3,1.7-2.3,2.5-2.8c0.9-0.5,1.8-0.8,2.7-0.8c0.2,0,0.5,0,0.7,0v4.8c-0.9-0.3-1.7-0.5-2.4-0.5c-0.7,0-1.3,0.2-1.9,0.5c-0.6,0.3-1.1,0.9-1.6,1.8v17.2h-4.4V-309.9z"/></g></g></g><g><g transform="translate(396.50, 598.41)"><g><path class="st10" d="M-302.9-309.9h4.4v3.3c0.8-1.3,1.7-2.3,2.5-2.8c0.9-0.5,1.8-0.8,2.7-0.8c0.2,0,0.5,0,0.7,0v4.8c-0.9-0.3-1.7-0.5-2.4-0.5c-0.7,0-1.3,0.2-1.9,0.5c-0.6,0.3-1.1,0.9-1.6,1.8v17.2h-4.4V-309.9z"/></g></g></g><g><g transform="translate(419.14, 598.41)"><g><path class="st10" d="M-308.3-286c-0.9,0-1.7-0.3-2.4-0.8c-0.7-0.5-1.3-1.2-1.7-2c-0.4-0.8-0.6-1.7-0.6-2.7c0-1.8,0.4-3.3,1.2-4.5c0.8-1.2,1.8-2.1,3-2.7c1.2-0.7,2.9-1.5,5.1-2.3v-1.7c0-1.5-0.2-2.6-0.5-3.3c-0.3-0.6-0.9-1-1.9-1c-1.7,0-2.5,1.1-2.5,3.3v1.2l-4.3-0.2c0.1-2.6,0.6-4.5,1.8-5.8c1.1-1.2,2.9-1.9,5.3-1.9c2.3,0,3.9,0.6,4.9,1.9c1,1.2,1.5,3.1,1.5,5.6v10.8c0,1.8,0.1,3.7,0.4,5.7h-4c-0.3-1.5-0.5-2.7-0.6-3.5c-0.3,1.1-0.9,2-1.7,2.7C-306.1-286.4-307.1-286-308.3-286z M-306.6-289.7c0.6,0,1.1-0.2,1.7-0.7c0.5-0.5,0.9-0.9,1.2-1.3v-6.7c-1.2,0.6-2.1,1.2-2.7,1.7c-0.6,0.5-1.2,1-1.6,1.7c-0.4,0.6-0.6,1.4-0.6,2.2c0,1,0.2,1.7,0.5,2.3C-307.8-290-307.3-289.7-306.6-289.7z"/></g></g></g><g><g transform="translate(449.17, 598.41)"></g></g><g><g transform="translate(465.32, 598.41)"><g><path class="st10" d="M-323.9-286c-2.8,0-4.9-0.9-6.3-2.6c-1.4-1.7-2.3-4.1-2.4-7.1l4.1-1.1c0.1,2.1,0.5,3.8,1.2,5.1c0.7,1.3,1.8,2,3.4,2c1.2,0,2.1-0.3,2.7-1c0.6-0.7,0.9-1.6,0.9-2.9c0-1.4-0.3-2.5-0.9-3.4c-0.6-0.9-1.5-1.9-2.7-3l-5.5-4.9c-1.1-1-1.9-2-2.4-3.2c-0.5-1.1-0.7-2.5-0.7-4.1c0-2.4,0.7-4.3,2.1-5.6c1.4-1.3,3.3-2,5.7-2c2.6,0,4.6,0.7,5.9,2.1c1.3,1.4,2.1,3.5,2.4,6.4l-3.9,1.1c-0.1-1.9-0.5-3.4-1.1-4.5c-0.6-1-1.7-1.6-3.3-1.6c-1.2,0-2.1,0.3-2.7,0.9c-0.6,0.6-0.9,1.5-0.9,2.7c0,1,0.2,1.8,0.5,2.5s0.9,1.3,1.7,2l5.6,4.9c1.4,1.3,2.6,2.7,3.4,4.2c0.9,1.5,1.3,3.2,1.3,5.1c0,2.4-0.7,4.3-2.2,5.7C-319.7-286.7-321.6-286-323.9-286z"/></g></g></g><g><g transform="translate(498.67, 598.41)"><g><path class="st10" d="M-342-286c-0.9,0-1.7-0.3-2.4-0.8c-0.7-0.5-1.3-1.2-1.7-2c-0.4-0.8-0.6-1.7-0.6-2.7c0-1.8,0.4-3.3,1.2-4.5c0.8-1.2,1.8-2.1,3-2.7c1.2-0.7,2.9-1.5,5.1-2.3v-1.7c0-1.5-0.2-2.6-0.5-3.3c-0.3-0.6-0.9-1-1.9-1c-1.7,0-2.5,1.1-2.5,3.3v1.2l-4.3-0.2c0.1-2.6,0.6-4.5,1.8-5.8c1.1-1.2,2.9-1.9,5.3-1.9c2.3,0,3.9,0.6,4.9,1.9c1,1.2,1.5,3.1,1.5,5.6v10.8c0,1.8,0.1,3.7,0.4,5.7h-4c-0.3-1.5-0.5-2.7-0.6-3.5c-0.3,1.1-0.9,2-1.7,2.7C-339.7-286.4-340.7-286-342-286z M-340.2-289.7c0.6,0,1.1-0.2,1.7-0.7c0.5-0.5,0.9-0.9,1.2-1.3v-6.7c-1.2,0.6-2.1,1.2-2.7,1.7c-0.6,0.5-1.2,1-1.6,1.7c-0.4,0.6-0.6,1.4-0.6,2.2c0,1,0.2,1.7,0.5,2.3C-341.4-290-340.9-289.7-340.2-289.7z"/></g></g></g><g><g transform="translate(528.71, 598.41)"><g><path class="st10" d="M-352.8-279c-2.3,0-4.1-0.4-5.5-1.1c-1.4-0.7-2-1.8-2-3.4c0-1,0.3-1.9,1-2.7c0.6-0.8,1.5-1.4,2.4-1.8c-0.7-0.2-1.3-0.6-1.7-1c-0.4-0.5-0.6-1-0.6-1.5c0-0.8,0.2-1.5,0.6-2.1c0.4-0.6,1.1-1.3,2-2.2c-0.9-0.7-1.6-1.6-2.1-2.7c-0.4-1.1-0.7-2.5-0.7-4.3c0-2.7,0.6-4.8,1.7-6.2c1.1-1.4,2.8-2.1,5-2.1c1.2,0,2.3,0.2,3,0.7c0.8,0.4,1.4,1.1,1.8,1.9c0.2-0.3,0.6-0.7,1.2-1.2c0.6-0.5,1.3-0.9,2-1.2l0.6-0.3l1.1,2.8c-0.5,0.1-1.3,0.3-2.3,0.7c-1,0.4-1.5,0.6-1.7,0.8c0.2,0.5,0.4,1.2,0.5,2c0.1,0.9,0.2,1.6,0.2,2.3c0,2.6-0.5,4.6-1.5,6c-1,1.4-2.7,2.1-5,2.1c-0.7,0-1.5-0.1-2.2-0.3c-0.5,0.8-0.8,1.4-0.8,1.8c0,0.3,0.2,0.5,0.5,0.7c0.3,0.2,0.8,0.3,1.5,0.3l3.7,0.3c1.8,0.2,3.2,0.7,4.1,1.7c0.9,1,1.3,2.3,1.3,4.1C-344.6-281-347.3-279-352.8-279z M-352.7-296.6c1.2,0,1.9-0.4,2.3-1.2c0.4-0.8,0.5-2.1,0.5-4c0-1.9-0.2-3.2-0.5-4.1c-0.3-0.9-1.1-1.3-2.2-1.3c-1.1,0-1.9,0.4-2.3,1.3c-0.4,0.9-0.6,2.2-0.6,4.1c0,1.7,0.2,3,0.6,3.9C-354.5-297-353.8-296.6-352.7-296.6z M-352.5-282.5c1.6,0,2.7-0.2,3.4-0.6c0.7-0.4,1.1-1,1.1-1.8c0-0.8-0.2-1.3-0.7-1.7c-0.5-0.4-1.3-0.6-2.5-0.7l-3.7-0.3c-0.6,0.6-1,1.1-1.3,1.5c-0.3,0.4-0.4,0.9-0.4,1.4c0,0.7,0.3,1.3,0.9,1.6C-355.1-282.6-354-282.5-352.5-282.5z"/></g></g></g><g><g transform="translate(559.38, 598.41)"><g><path class="st10" d="M-371.7-309.9h4.4v3.3c0.8-1.3,1.7-2.3,2.5-2.8c0.9-0.5,1.8-0.8,2.7-0.8c0.2,0,0.5,0,0.7,0v4.8c-0.9-0.3-1.7-0.5-2.4-0.5c-0.7,0-1.3,0.2-1.9,0.5c-0.6,0.3-1.1,0.9-1.6,1.8v17.2h-4.4V-309.9z"/></g></g></g><g><g transform="translate(582.01, 598.41)"><g><path class="st10" d="M-377.2-286c-0.9,0-1.7-0.3-2.4-0.8c-0.7-0.5-1.3-1.2-1.7-2c-0.4-0.8-0.6-1.7-0.6-2.7c0-1.8,0.4-3.3,1.2-4.5c0.8-1.2,1.8-2.1,3-2.7c1.2-0.7,2.9-1.5,5.1-2.3v-1.7c0-1.5-0.2-2.6-0.5-3.3c-0.3-0.6-0.9-1-1.9-1c-1.7,0-2.5,1.1-2.5,3.3v1.2l-4.3-0.2c0.1-2.6,0.6-4.5,1.8-5.8c1.1-1.2,2.9-1.9,5.3-1.9c2.3,0,3.9,0.6,4.9,1.9c1,1.2,1.5,3.1,1.5,5.6v10.8c0,1.8,0.1,3.7,0.4,5.7h-4c-0.3-1.5-0.5-2.7-0.6-3.5c-0.3,1.1-0.9,2-1.7,2.7C-374.9-286.4-375.9-286-377.2-286z M-375.5-289.7c0.6,0,1.1-0.2,1.7-0.7c0.5-0.5,0.9-0.9,1.2-1.3v-6.7c-1.2,0.6-2.1,1.2-2.7,1.7c-0.6,0.5-1.2,1-1.6,1.7c-0.4,0.6-0.6,1.4-0.6,2.2c0,1,0.2,1.7,0.5,2.3C-376.7-290-376.2-289.7-375.5-289.7z"/></g></g></g><g><g transform="translate(612.05, 598.41)"><g><path class="st10" d="M-388.7-286c-2,0-3.5-0.7-4.5-2.2c-1-1.5-1.4-3.9-1.4-7.4v-4.6c0-3.1,0.4-5.6,1.2-7.4c0.8-1.8,2.3-2.7,4.5-2.7c1.4,0,2.7,0.6,3.9,1.8v-10.9h4.4v33h-4.4v-1.5C-386-286.6-387.3-286-388.7-286z M-387.6-289.4c0.9,0,1.8-0.3,2.7-0.9v-15.4c-1-0.7-1.9-1-2.8-1c-1.7,0-2.6,1.6-2.6,4.9v6.6c0,1.9,0.2,3.3,0.5,4.3C-389.3-289.9-388.6-289.4-387.6-289.4z"/></g></g></g><g><g transform="translate(643.21, 598.41)"><g><path class="st10" d="M-403.1-286c-0.9,0-1.7-0.3-2.4-0.8c-0.7-0.5-1.3-1.2-1.7-2c-0.4-0.8-0.6-1.7-0.6-2.7c0-1.8,0.4-3.3,1.2-4.5c0.8-1.2,1.8-2.1,3-2.7c1.2-0.7,2.9-1.5,5.1-2.3v-1.7c0-1.5-0.2-2.6-0.5-3.3c-0.3-0.6-0.9-1-1.9-1c-1.7,0-2.5,1.1-2.5,3.3v1.2l-4.3-0.2c0.1-2.6,0.6-4.5,1.8-5.8c1.1-1.2,2.9-1.9,5.3-1.9c2.3,0,3.9,0.6,4.9,1.9c1,1.2,1.5,3.1,1.5,5.6v10.8c0,1.8,0.1,3.7,0.4,5.7h-4c-0.3-1.5-0.5-2.7-0.6-3.5c-0.3,1.1-0.9,2-1.7,2.7C-400.8-286.4-401.8-286-403.1-286z M-401.4-289.7c0.6,0,1.1-0.2,1.7-0.7c0.5-0.5,0.9-0.9,1.2-1.3v-6.7c-1.2,0.6-2.1,1.2-2.7,1.7c-0.6,0.5-1.2,1-1.6,1.7c-0.4,0.6-0.6,1.4-0.6,2.2c0,1,0.2,1.7,0.5,2.3C-402.5-290-402-289.7-401.4-289.7z"/></g></g></g></svg>